<svg viewBox="0 0 165 48" width="165" height="48" fill="none" xmlns="http://www.w3.org/2000/svg">
  <!-- Icon -->
  <g transform="translate(0, 0)">
    <!-- Open book base -->
    <path d="M4 18C4 18 8 16 16 16C20 16 24 17 24 18V40C24 40 20 38 16 38C10 38 4 40 4 40V18Z" fill="#818CF8" opacity="0.3"/>
    <path d="M44 18C44 18 40 16 32 16C28 16 24 17 24 18V40C24 40 28 38 32 38C38 38 44 40 44 40V18Z" fill="#6366F1" opacity="0.4"/>

    <!-- Book spine -->
    <path d="M24 18V40" stroke="#4F46E5" stroke-width="2" stroke-linecap="round"/>

    <!-- Book covers outline -->
    <path d="M4 18C4 18 8 16 16 16C20 16 24 17 24 18V40C24 40 20 38 16 38C10 38 4 40 4 40V18Z" stroke="#4F46E5" stroke-width="2" stroke-linecap="round" stroke-linejoin="round" fill="none"/>
    <path d="M44 18C44 18 40 16 32 16C28 16 24 17 24 18V40C24 40 28 38 32 38C38 38 44 40 44 40V18Z" stroke="#4F46E5" stroke-width="2" stroke-linecap="round" stroke-linejoin="round" fill="none"/>

    <!-- Lightbulb -->
    <path d="M24 4C19.5 4 16 7.5 16 12C16 15 17.5 17.5 20 19V22H28V19C30.5 17.5 32 15 32 12C32 7.5 28.5 4 24 4Z" fill="#FEF3C7" stroke="#F59E0B" stroke-width="2"/>
    <rect x="20" y="22" width="8" height="3" rx="1" fill="#A3A3A3"/>
    <rect x="21" y="25" width="6" height="2" rx="1" fill="#737373"/>
    <path d="M22 12C22 12 23 14 24 14C25 14 26 12 26 12" stroke="#F59E0B" stroke-width="1.5" stroke-linecap="round"/>

    <!-- Light rays -->
    <path d="M24 0V2" stroke="#FCD34D" stroke-width="1.5" stroke-linecap="round"/>
    <path d="M32 4L30.5 5.5" stroke="#FCD34D" stroke-width="1.5" stroke-linecap="round"/>
    <path d="M16 4L17.5 5.5" stroke="#FCD34D" stroke-width="1.5" stroke-linecap="round"/>
    <path d="M12 10H14" stroke="#FCD34D" stroke-width="1.5" stroke-linecap="round"/>
    <path d="M34 10H36" stroke="#FCD34D" stroke-width="1.5" stroke-linecap="round"/>
  </g>

  <!-- Text: LearnEx -->
  <text x="52" y="33" font-family="system-ui, -apple-system, 'Segoe UI', Roboto, sans-serif" font-size="26" font-weight="700" letter-spacing="-0.5">
    <tspan fill="#ffffff">Learn</tspan><tspan fill="#A3A3A3">Ex</tspan>
  </text>
</svg>
